<mxfile host="Electron" modified="2025-05-07T12:07:24.183Z" agent="Mozilla/5.0 (Windows NT 10.0; Win64; x64) AppleWebKit/537.36 (KHTML, like Gecko) draw.io/24.6.4 Chrome/124.0.6367.207 Electron/30.0.6 Safari/537.36" etag="9AZEM37QvBMtrI31VxFV" version="24.6.4" type="device">
  <diagram name="Страница — 1" id="ZMt3Es21inp7EqhiQKii">
    <mxGraphModel dx="2625" dy="1573" grid="1" gridSize="10" guides="1" tooltips="1" connect="1" arrows="1" fold="1" page="1" pageScale="1" pageWidth="3300" pageHeight="2339" math="0" shadow="0">
      <root>
        <mxCell id="0" />
        <mxCell id="1" parent="0" />
        <mxCell id="CwhcZS40O737dXPSPKNs-13" value="&lt;p style=&quot;margin: 4px 0px 0px; text-align: center; font-size: 23px;&quot;&gt;&lt;b style=&quot;font-size: 23px;&quot;&gt;регистрация&lt;/b&gt;&lt;/p&gt;&lt;hr style=&quot;border-style: solid; font-size: 23px;&quot;&gt;&lt;p style=&quot;margin: 0px 0px 0px 4px;&quot;&gt;connStrig&lt;/p&gt;&lt;p style=&quot;margin: 0px 0px 0px 4px;&quot;&gt;dataFolder&lt;br&gt;&lt;/p&gt;&lt;p style=&quot;margin: 0px 0px 0px 4px;&quot;&gt;dbPath&lt;/p&gt;&lt;hr style=&quot;border-style: solid; font-size: 23px;&quot;&gt;&lt;p style=&quot;margin: 0px 0px 0px 4px; font-size: 23px;&quot;&gt;регистрация()&lt;/p&gt;&lt;p style=&quot;margin: 0px 0px 0px 4px; font-size: 23px;&quot;&gt;&lt;font style=&quot;font-size: 23px;&quot;&gt;RegisterButton_Click()&lt;/font&gt;&lt;/p&gt;&lt;p style=&quot;margin: 0px 0px 0px 4px; font-size: 23px;&quot;&gt;&lt;span style=&quot;font-size: 23px;&quot;&gt;BackToLogin_Click()&lt;/span&gt;&lt;/p&gt;&lt;p style=&quot;margin: 0px 0px 0px 4px; font-size: 23px;&quot;&gt;&lt;span style=&quot;font-size: 23px;&quot;&gt;&lt;br style=&quot;font-size: 23px;&quot;&gt;&lt;/span&gt;&lt;/p&gt;" style="verticalAlign=top;align=left;overflow=fill;html=1;whiteSpace=wrap;fontFamily=isocpeur;fontSize=23;" parent="1" vertex="1">
          <mxGeometry x="2075" y="1300" width="250" height="260" as="geometry" />
        </mxCell>
        <mxCell id="CwhcZS40O737dXPSPKNs-14" value="&lt;p style=&quot;margin: 4px 0px 0px; text-align: center; font-size: 23px;&quot;&gt;&lt;b style=&quot;font-size: 23px;&quot;&gt;тест&lt;/b&gt;&lt;/p&gt;&lt;hr style=&quot;border-style: solid; font-size: 23px;&quot;&gt;&lt;p style=&quot;margin: 0px 0px 0px 4px; font-size: 23px;&quot;&gt;currentUser&lt;/p&gt;&lt;p style=&quot;margin: 0px 0px 0px 4px; font-size: 23px;&quot;&gt;_answered&lt;/p&gt;&lt;p style=&quot;margin: 0px 0px 0px 4px; font-size: 23px;&quot;&gt;Category&lt;/p&gt;&lt;p style=&quot;margin: 0px 0px 0px 4px; font-size: 23px;&quot;&gt;Level&lt;/p&gt;&lt;p style=&quot;margin: 0px 0px 0px 4px; font-size: 23px;&quot;&gt;TestId&lt;/p&gt;&lt;p style=&quot;margin: 0px 0px 0px 4px; font-size: 23px;&quot;&gt;_questions&lt;/p&gt;&lt;p style=&quot;margin: 0px 0px 0px 4px; font-size: 23px;&quot;&gt;_currentIndex&lt;/p&gt;&lt;p style=&quot;margin: 0px 0px 0px 4px; font-size: 23px;&quot;&gt;_timer&lt;/p&gt;&lt;p style=&quot;margin: 0px 0px 0px 4px; font-size: 23px;&quot;&gt;_initialTime&lt;/p&gt;&lt;p style=&quot;margin: 0px 0px 0px 4px; font-size: 23px;&quot;&gt;_currentQuestion&lt;/p&gt;&lt;p style=&quot;margin: 0px 0px 0px 4px; font-size: 23px;&quot;&gt;_timeRemaining&lt;/p&gt;&lt;p style=&quot;margin: 0px 0px 0px 4px; font-size: 23px;&quot;&gt;Score&lt;/p&gt;&lt;p style=&quot;margin: 0px 0px 0px 4px; font-size: 23px;&quot;&gt;SelectedAnswer&lt;/p&gt;&lt;p style=&quot;margin: 0px 0px 0px 4px; font-size: 23px;&quot;&gt;dataFolder&lt;/p&gt;&lt;p style=&quot;margin: 0px 0px 0px 4px; font-size: 23px;&quot;&gt;dbPath&lt;/p&gt;&lt;p style=&quot;margin: 0px 0px 0px 4px; font-size: 23px;&quot;&gt;connStr&lt;br&gt;&lt;/p&gt;&lt;hr style=&quot;border-style: solid; font-size: 23px;&quot;&gt;&lt;p style=&quot;margin: 0px 0px 0px 4px; font-size: 23px;&quot;&gt;тест()&lt;/p&gt;&lt;p style=&quot;margin: 0px 0px 0px 4px;&quot;&gt;&lt;font face=&quot;isocpeur&quot; style=&quot;font-size: 23px;&quot;&gt;LoadQuestionsFromDb()&lt;/font&gt;&lt;/p&gt;&lt;p style=&quot;margin: 0px 0px 0px 4px;&quot;&gt;&lt;font style=&quot;font-size: 23px;&quot; face=&quot;isocpeur&quot;&gt;ShowCurrentQuestion()&lt;/font&gt;&lt;/p&gt;&lt;p style=&quot;margin: 0px 0px 0px 4px;&quot;&gt;&lt;span style=&quot;background-color: initial;&quot;&gt;&lt;font face=&quot;isocpeur&quot; style=&quot;font-size: 23px;&quot;&gt;Timer_Tick()&lt;/font&gt;&lt;/span&gt;&lt;/p&gt;&lt;p style=&quot;margin: 0px 0px 0px 4px;&quot;&gt;&lt;span style=&quot;background-color: initial;&quot;&gt;&lt;font face=&quot;isocpeur&quot; style=&quot;font-size: 23px;&quot;&gt;NextButton_Click()&lt;/font&gt;&lt;/span&gt;&lt;/p&gt;&lt;p style=&quot;margin: 0px 0px 0px 4px;&quot;&gt;&lt;span style=&quot;background-color: initial;&quot;&gt;&lt;font face=&quot;isocpeur&quot; style=&quot;font-size: 23px;&quot;&gt;SubmitAnswer()&lt;/font&gt;&lt;/span&gt;&lt;/p&gt;&lt;p style=&quot;margin: 0px 0px 0px 4px;&quot;&gt;&lt;span style=&quot;background-color: initial;&quot;&gt;&lt;font face=&quot;isocpeur&quot; style=&quot;font-size: 23px;&quot;&gt;FinishTest()&lt;/font&gt;&lt;/span&gt;&lt;/p&gt;&lt;p style=&quot;margin: 0px 0px 0px 4px;&quot;&gt;&lt;span style=&quot;background-color: initial;&quot;&gt;&lt;font style=&quot;font-size: 23px;&quot;&gt;OnPropertyChanged()&lt;/font&gt;&lt;/span&gt;&lt;/p&gt;&lt;p style=&quot;margin: 0px 0px 0px 4px;&quot;&gt;&lt;span style=&quot;background-color: initial;&quot;&gt;&lt;font face=&quot;isocpeur&quot; style=&quot;font-size: 23px;&quot;&gt;HomeButton_Click()&lt;/font&gt;&lt;/span&gt;&lt;/p&gt;&lt;p style=&quot;margin: 0px 0px 0px 4px;&quot;&gt;&lt;span style=&quot;background-color: initial;&quot;&gt;&lt;font face=&quot;isocpeur&quot; style=&quot;font-size: 23px;&quot;&gt;LeaderboardButton_Click()&lt;/font&gt;&lt;/span&gt;&lt;/p&gt;&lt;p style=&quot;margin: 0px 0px 0px 4px; font-size: 23px;&quot;&gt;&lt;span style=&quot;font-size: 14pt; font-family: &amp;quot;Times New Roman&amp;quot;, serif;&quot;&gt;&lt;br&gt;&lt;/span&gt;&lt;/p&gt;&lt;p style=&quot;margin: 0px 0px 0px 4px; font-size: 23px;&quot;&gt;&lt;span style=&quot;font-size: 14pt; font-family: &amp;quot;Times New Roman&amp;quot;, serif;&quot;&gt;&amp;nbsp;&lt;/span&gt;&lt;span style=&quot;font-size: 14pt; font-family: &amp;quot;Times New Roman&amp;quot;, serif;&quot;&gt;&lt;br&gt;&lt;/span&gt;&lt;/p&gt;" style="verticalAlign=top;align=left;overflow=fill;html=1;whiteSpace=wrap;fontFamily=isocpeur;fontSize=23;" parent="1" vertex="1">
          <mxGeometry x="1145" y="610" width="340" height="820" as="geometry" />
        </mxCell>
        <mxCell id="CwhcZS40O737dXPSPKNs-15" value="&lt;p style=&quot;margin: 4px 0px 0px; text-align: center; font-size: 23px;&quot;&gt;&lt;b style=&quot;font-size: 23px;&quot;&gt;&lt;font style=&quot;font-size: 23px;&quot;&gt;выбор сложности&lt;/font&gt;&lt;/b&gt;&lt;/p&gt;&lt;hr style=&quot;border-style: solid; font-size: 23px;&quot;&gt;&lt;p style=&quot;margin: 0px 0px 0px 4px; font-size: 23px;&quot;&gt;&lt;font style=&quot;font-size: 23px;&quot;&gt;_easyMax&lt;br&gt;&lt;span style=&quot;background-color: initial;&quot;&gt;_mediumMax&lt;/span&gt;&lt;/font&gt;&lt;/p&gt;&lt;p style=&quot;margin: 0px 0px 0px 4px;&quot;&gt;&lt;font style=&quot;&quot;&gt;_hardMax&lt;/font&gt;&lt;/p&gt;&lt;p style=&quot;margin: 0px 0px 0px 4px;&quot;&gt;&lt;font style=&quot;&quot;&gt;TestName&lt;/font&gt;&lt;/p&gt;&lt;hr style=&quot;border-style: solid; font-size: 23px;&quot;&gt;&lt;p style=&quot;margin: 0px 0px 0px 4px; font-size: 23px;&quot;&gt;&lt;font style=&quot;font-size: 23px;&quot;&gt;&lt;span style=&quot;font-size: 23px;&quot;&gt;RaisePropertyChanged()&lt;/span&gt;&lt;/font&gt;&lt;/p&gt;&lt;p style=&quot;margin: 0px 0px 0px 4px; font-size: 23px;&quot;&gt;&lt;span style=&quot;font-size: 23px;&quot;&gt;&lt;font style=&quot;font-size: 23px;&quot;&gt;выбор_сложности()&lt;/font&gt;&lt;/span&gt;&lt;/p&gt;&lt;p style=&quot;margin: 0px 0px 0px 4px; font-size: 23px;&quot;&gt;&lt;span style=&quot;font-size: 23px;&quot;&gt;&lt;font style=&quot;font-size: 23px;&quot;&gt;LoadMaxScores()&lt;/font&gt;&lt;/span&gt;&lt;/p&gt;&lt;p style=&quot;margin: 0px 0px 0px 4px; font-size: 23px;&quot;&gt;&lt;span style=&quot;font-size: 23px;&quot; lang=&quot;EN-US&quot;&gt;&lt;font style=&quot;font-size: 23px;&quot;&gt;Difficulty_Click()&lt;/font&gt;&lt;/span&gt;&lt;/p&gt;&lt;p style=&quot;margin: 0px 0px 0px 4px; font-size: 23px;&quot;&gt;&lt;span style=&quot;font-size: 23px;&quot;&gt;&lt;font style=&quot;font-size: 23px;&quot;&gt;RouteToTest()&lt;/font&gt;&lt;/span&gt;&lt;/p&gt;&lt;p style=&quot;margin: 0px 0px 0px 4px; font-size: 23px;&quot;&gt;&lt;span style=&quot;font-size: 23px;&quot;&gt;&lt;font style=&quot;font-size: 23px;&quot;&gt;BackButton_Click()&lt;/font&gt;&lt;/span&gt;&lt;/p&gt;&lt;p style=&quot;margin: 0px 0px 0px 4px; font-size: 23px;&quot;&gt;&lt;span style=&quot;font-size: 23px;&quot;&gt;&lt;font style=&quot;font-size: 23px;&quot;&gt;&lt;br style=&quot;font-size: 23px;&quot;&gt;&lt;/font&gt;&lt;br style=&quot;font-size: 23px;&quot;&gt;&lt;/span&gt;&lt;/p&gt;" style="verticalAlign=top;align=left;overflow=fill;html=1;whiteSpace=wrap;fontFamily=isocpeur;fontSize=23;" parent="1" vertex="1">
          <mxGeometry x="615" y="630" width="270" height="370" as="geometry" />
        </mxCell>
        <mxCell id="CwhcZS40O737dXPSPKNs-16" value="&lt;p style=&quot;margin: 4px 0px 0px; text-align: center; font-size: 23px;&quot;&gt;&lt;b style=&quot;font-size: 23px;&quot;&gt;загрузка&lt;/b&gt;&lt;/p&gt;&lt;hr style=&quot;border-style: solid; font-size: 23px;&quot;&gt;&lt;p style=&quot;margin: 0px 0px 0px 4px; font-size: 23px;&quot;&gt;_timer&lt;/p&gt;&lt;p style=&quot;margin: 0px 0px 0px 4px; font-size: 23px;&quot;&gt;_progress&lt;br&gt;&lt;/p&gt;&lt;hr style=&quot;border-style: solid; font-size: 23px;&quot;&gt;&lt;p style=&quot;margin: 0px 0px 0px 4px; font-size: 23px;&quot;&gt;загрузка()&lt;/p&gt;&lt;p style=&quot;margin: 0px 0px 0px 4px;&quot;&gt;&lt;font style=&quot;font-size: 23px;&quot; face=&quot;isocpeur&quot;&gt;Timer_Tick&lt;/font&gt;&lt;br&gt;&lt;/p&gt;" style="verticalAlign=top;align=left;overflow=fill;html=1;whiteSpace=wrap;fontFamily=isocpeur;fontSize=23;" parent="1" vertex="1">
          <mxGeometry x="2390" y="1080" width="230" height="200" as="geometry" />
        </mxCell>
        <mxCell id="CwhcZS40O737dXPSPKNs-17" value="&lt;p style=&quot;margin: 4px 0px 0px; text-align: center; font-size: 23px;&quot;&gt;&lt;b style=&quot;font-size: 23px;&quot;&gt;вопрос&lt;/b&gt;&lt;/p&gt;&lt;hr style=&quot;border-style: solid; font-size: 23px;&quot;&gt;&lt;p style=&quot;margin: 0px 0px 0px 4px;&quot;&gt;идентификатор&lt;br style=&quot;font-size: 23px;&quot;&gt;&lt;/p&gt;&lt;p style=&quot;margin: 0px 0px 0px 4px;&quot;&gt;содержание&lt;br&gt;&lt;/p&gt;&lt;p style=&quot;margin: 0px 0px 0px 4px;&quot;&gt;вес&lt;br&gt;&lt;/p&gt;&lt;p style=&quot;margin: 0px 0px 0px 4px;&quot;&gt;ответы&lt;br&gt;&lt;/p&gt;&lt;hr style=&quot;border-style: solid; font-size: 23px;&quot;&gt;&lt;p style=&quot;margin: 0px 0px 0px 4px; font-size: 23px;&quot;&gt;&lt;br style=&quot;font-size: 23px;&quot;&gt;&lt;/p&gt;" style="verticalAlign=top;align=left;overflow=fill;html=1;whiteSpace=wrap;fontFamily=isocpeur;fontSize=23;" parent="1" vertex="1">
          <mxGeometry x="1645" y="620" width="240" height="230" as="geometry" />
        </mxCell>
        <mxCell id="CwhcZS40O737dXPSPKNs-19" value="&lt;p style=&quot;margin: 4px 0px 0px; text-align: center; font-size: 23px;&quot;&gt;&lt;b style=&quot;font-size: 23px;&quot;&gt;Пользователь&lt;/b&gt;&lt;/p&gt;&lt;hr style=&quot;border-style: solid; font-size: 23px;&quot;&gt;&lt;p style=&quot;margin: 0px 0px 0px 4px;&quot;&gt;Id&lt;/p&gt;&lt;p style=&quot;margin: 0px 0px 0px 4px;&quot;&gt;Name&lt;/p&gt;&lt;p style=&quot;margin: 0px 0px 0px 4px;&quot;&gt;Login&lt;/p&gt;&lt;p style=&quot;margin: 0px 0px 0px 4px;&quot;&gt;Password&lt;br&gt;&lt;/p&gt;&lt;hr style=&quot;border-style: solid; font-size: 23px;&quot;&gt;&lt;p style=&quot;margin: 0px 0px 0px 4px; font-size: 23px;&quot;&gt;&lt;br style=&quot;font-size: 23px;&quot;&gt;&lt;/p&gt;" style="verticalAlign=top;align=left;overflow=fill;html=1;whiteSpace=wrap;fontFamily=isocpeur;fontSize=23;" parent="1" vertex="1">
          <mxGeometry x="1645" y="970" width="240" height="220" as="geometry" />
        </mxCell>
        <mxCell id="CwhcZS40O737dXPSPKNs-20" value="&lt;p style=&quot;margin: 4px 0px 0px; text-align: center; font-size: 23px;&quot;&gt;&lt;b style=&quot;font-size: 23px;&quot;&gt;ответ&lt;/b&gt;&lt;/p&gt;&lt;hr style=&quot;border-style: solid; font-size: 23px;&quot;&gt;&lt;p style=&quot;margin: 0px 0px 0px 4px;&quot;&gt;идентификатор&lt;br style=&quot;font-size: 23px;&quot;&gt;&lt;/p&gt;&lt;p style=&quot;margin: 0px 0px 0px 4px;&quot;&gt;содержание&lt;br&gt;&lt;/p&gt;&lt;p style=&quot;margin: 0px 0px 0px 4px;&quot;&gt;комментарий&lt;br&gt;&lt;/p&gt;&lt;p style=&quot;margin: 0px 0px 0px 4px;&quot;&gt;правильный&lt;br&gt;&lt;/p&gt;&lt;p style=&quot;margin: 0px 0px 0px 4px;&quot;&gt;IsSelected&amp;nbsp;&lt;br&gt;&lt;/p&gt;&lt;hr style=&quot;border-style: solid; font-size: 23px;&quot;&gt;&lt;p style=&quot;margin: 0px 0px 0px 4px; font-size: 23px;&quot;&gt;&lt;br&gt;&lt;/p&gt;&lt;p style=&quot;margin: 0px 0px 0px 4px; font-size: 23px;&quot;&gt;&lt;span style=&quot;font-size: 23px; font-family: &amp;quot;Times New Roman&amp;quot;, serif;&quot;&gt;&lt;br style=&quot;font-size: 23px;&quot;&gt;&lt;/span&gt;&lt;/p&gt;&lt;p style=&quot;margin: 0px 0px 0px 4px; font-size: 23px;&quot;&gt;&lt;span style=&quot;font-size: 23px; font-family: &amp;quot;Times New Roman&amp;quot;, serif;&quot;&gt;&lt;br style=&quot;font-size: 23px;&quot;&gt;&lt;/span&gt;&lt;/p&gt;" style="verticalAlign=top;align=left;overflow=fill;html=1;whiteSpace=wrap;fontFamily=isocpeur;fontSize=23;" parent="1" vertex="1">
          <mxGeometry x="2175" y="620" width="240" height="250" as="geometry" />
        </mxCell>
        <mxCell id="CwhcZS40O737dXPSPKNs-21" value="&lt;p style=&quot;margin: 4px 0px 0px; text-align: center; font-size: 23px;&quot;&gt;&lt;b style=&quot;font-size: 23px;&quot;&gt;главная&lt;/b&gt;&lt;/p&gt;&lt;hr style=&quot;border-style: solid; font-size: 23px;&quot;&gt;&lt;p style=&quot;margin: 0px 0px 0px 4px; font-size: 23px;&quot;&gt;currentUser&lt;/p&gt;&lt;hr style=&quot;border-style: solid; font-size: 23px;&quot;&gt;&lt;p style=&quot;margin: 0px 0px 0px 4px; font-size: 23px;&quot;&gt;&lt;font style=&quot;font-size: 23px;&quot;&gt;главная()&lt;/font&gt;&lt;/p&gt;&lt;p style=&quot;margin: 0px 0px 0px 4px; font-size: 23px;&quot;&gt;&lt;font style=&quot;font-size: 23px;&quot;&gt;&lt;span style=&quot;font-size: 23px;&quot;&gt;Tile_MouseLeftButtonUp()&lt;/span&gt;&lt;/font&gt;&lt;/p&gt;&lt;p style=&quot;margin: 0px 0px 0px 4px; font-size: 23px;&quot;&gt;&lt;font style=&quot;font-size: 23px;&quot;&gt;&lt;span style=&quot;font-size: 23px;&quot;&gt;RouteToTest()&lt;/span&gt;&lt;/font&gt;&lt;/p&gt;&lt;p style=&quot;margin: 0px 0px 0px 4px; font-size: 23px;&quot;&gt;&lt;span style=&quot;font-size: 23px;&quot;&gt;&lt;br style=&quot;font-size: 23px;&quot;&gt;&lt;/span&gt;&lt;/p&gt;" style="verticalAlign=top;align=left;overflow=fill;html=1;whiteSpace=wrap;fontFamily=isocpeur;fontSize=23;" parent="1" vertex="1">
          <mxGeometry x="2035" y="910" width="260" height="220" as="geometry" />
        </mxCell>
        <mxCell id="CwhcZS40O737dXPSPKNs-22" value="&lt;p style=&quot;margin: 4px 0px 0px; text-align: center; font-size: 23px;&quot;&gt;&lt;b style=&quot;font-size: 23px;&quot;&gt;авторизация&lt;/b&gt;&lt;/p&gt;&lt;hr style=&quot;border-style: solid; font-size: 23px;&quot;&gt;&lt;p style=&quot;margin: 0px 0px 0px 4px; font-size: 23px;&quot;&gt;connStr&lt;/p&gt;&lt;p style=&quot;margin: 0px 0px 0px 4px; font-size: 23px;&quot;&gt;dataFolder&lt;br style=&quot;font-size: 23px;&quot;&gt;&lt;/p&gt;&lt;p style=&quot;margin: 0px 0px 0px 4px;&quot;&gt;dbPath&lt;br&gt;&lt;/p&gt;&lt;hr style=&quot;border-style: solid; font-size: 23px;&quot;&gt;&lt;p style=&quot;margin: 0px 0px 0px 4px; font-size: 23px;&quot;&gt;авторизация()&lt;/p&gt;&lt;p style=&quot;margin: 0px 0px 0px 4px; font-size: 23px;&quot;&gt;&lt;span style=&quot;font-size: 23px;&quot;&gt;LoginButton_Click()&lt;/span&gt;&lt;/p&gt;&lt;p style=&quot;margin: 0px 0px 0px 4px; font-size: 23px;&quot;&gt;&lt;span style=&quot;font-size: 23px;&quot;&gt;Registration_Click()&lt;/span&gt;&lt;/p&gt;" style="verticalAlign=top;align=left;overflow=fill;html=1;whiteSpace=wrap;fontFamily=isocpeur;fontSize=23;" parent="1" vertex="1">
          <mxGeometry x="1645" y="1300" width="240" height="260" as="geometry" />
        </mxCell>
        <mxCell id="CwhcZS40O737dXPSPKNs-23" value="&lt;p style=&quot;margin: 4px 0px 0px; text-align: center; font-size: 23px;&quot;&gt;&lt;b style=&quot;font-size: 23px;&quot;&gt;таблица_лидеров&lt;/b&gt;&lt;/p&gt;&lt;hr style=&quot;border-style: solid; font-size: 23px;&quot;&gt;&lt;p style=&quot;margin: 0px 0px 0px 4px; font-size: 23px;&quot;&gt;_testId&lt;/p&gt;&lt;p style=&quot;margin: 0px 0px 0px 4px; font-size: 23px;&quot;&gt;currentUser&lt;br&gt;&lt;/p&gt;&lt;hr style=&quot;border-style: solid; font-size: 23px;&quot;&gt;&lt;p style=&quot;margin: 0px 0px 0px 4px; font-size: 23px;&quot;&gt;таблица лидеров()&lt;/p&gt;&lt;p style=&quot;margin: 0px 0px 0px 4px;&quot;&gt;&lt;font style=&quot;font-size: 23px;&quot; face=&quot;isocpeur&quot;&gt;LoadLeaderboard()&lt;/font&gt;&lt;/p&gt;&lt;p style=&quot;margin: 0px 0px 0px 4px;&quot;&gt;&lt;font face=&quot;isocpeur&quot; style=&quot;font-size: 23px;&quot;&gt;HomeButton_Click&lt;/font&gt;&lt;/p&gt;" style="verticalAlign=top;align=left;overflow=fill;html=1;whiteSpace=wrap;fontFamily=isocpeur;fontSize=23;" parent="1" vertex="1">
          <mxGeometry x="630" y="1210" width="240" height="240" as="geometry" />
        </mxCell>
        <mxCell id="9g3BDJK04uG7Q3a8VbqJ-1" value="" style="endArrow=none;html=1;rounded=0;entryX=0;entryY=0.399;entryDx=0;entryDy=0;entryPerimeter=0;fontSize=20;" edge="1" parent="1" target="CwhcZS40O737dXPSPKNs-20">
          <mxGeometry width="50" height="50" relative="1" as="geometry">
            <mxPoint x="1885" y="720" as="sourcePoint" />
            <mxPoint x="2185" y="720" as="targetPoint" />
          </mxGeometry>
        </mxCell>
        <mxCell id="9g3BDJK04uG7Q3a8VbqJ-2" value="1" style="text;html=1;align=center;verticalAlign=middle;resizable=0;points=[];autosize=1;strokeColor=none;fillColor=none;fontSize=20;" vertex="1" parent="1">
          <mxGeometry x="1885" y="683" width="30" height="40" as="geometry" />
        </mxCell>
        <mxCell id="9g3BDJK04uG7Q3a8VbqJ-3" value="1" style="text;html=1;align=center;verticalAlign=middle;resizable=0;points=[];autosize=1;strokeColor=none;fillColor=none;fontSize=20;" vertex="1" parent="1">
          <mxGeometry x="2145" y="683" width="30" height="40" as="geometry" />
        </mxCell>
        <mxCell id="9g3BDJK04uG7Q3a8VbqJ-4" value="" style="endArrow=none;html=1;rounded=0;entryX=0.002;entryY=0.194;entryDx=0;entryDy=0;entryPerimeter=0;fontSize=20;exitX=-0.016;exitY=0.912;exitDx=0;exitDy=0;exitPerimeter=0;" edge="1" parent="1" source="9g3BDJK04uG7Q3a8VbqJ-5" target="CwhcZS40O737dXPSPKNs-14">
          <mxGeometry width="50" height="50" relative="1" as="geometry">
            <mxPoint x="885" y="770" as="sourcePoint" />
            <mxPoint x="1045" y="770" as="targetPoint" />
          </mxGeometry>
        </mxCell>
        <mxCell id="9g3BDJK04uG7Q3a8VbqJ-5" value="1" style="text;html=1;align=center;verticalAlign=middle;resizable=0;points=[];autosize=1;strokeColor=none;fillColor=none;fontSize=20;" vertex="1" parent="1">
          <mxGeometry x="885" y="733" width="30" height="40" as="geometry" />
        </mxCell>
        <mxCell id="9g3BDJK04uG7Q3a8VbqJ-6" value="1" style="text;html=1;align=center;verticalAlign=middle;resizable=0;points=[];autosize=1;strokeColor=none;fillColor=none;fontSize=20;" vertex="1" parent="1">
          <mxGeometry x="1115" y="733" width="30" height="40" as="geometry" />
        </mxCell>
        <mxCell id="9g3BDJK04uG7Q3a8VbqJ-7" value="" style="endArrow=none;html=1;rounded=0;fontSize=20;exitX=1.003;exitY=0.123;exitDx=0;exitDy=0;exitPerimeter=0;entryX=0.001;entryY=0.395;entryDx=0;entryDy=0;entryPerimeter=0;" edge="1" parent="1">
          <mxGeometry width="50" height="50" relative="1" as="geometry">
            <mxPoint x="1485.0000000000005" y="720.01" as="sourcePoint" />
            <mxPoint x="1645.2400000000002" y="719.9999999999999" as="targetPoint" />
          </mxGeometry>
        </mxCell>
        <mxCell id="9g3BDJK04uG7Q3a8VbqJ-8" value="1..*" style="text;html=1;align=center;verticalAlign=middle;resizable=0;points=[];autosize=1;strokeColor=none;fillColor=none;fontSize=20;" vertex="1" parent="1">
          <mxGeometry x="1485" y="683" width="50" height="40" as="geometry" />
        </mxCell>
        <mxCell id="9g3BDJK04uG7Q3a8VbqJ-9" value="10" style="text;html=1;align=center;verticalAlign=middle;resizable=0;points=[];autosize=1;strokeColor=none;fillColor=none;fontSize=20;" vertex="1" parent="1">
          <mxGeometry x="1595" y="683" width="50" height="40" as="geometry" />
        </mxCell>
        <mxCell id="9g3BDJK04uG7Q3a8VbqJ-10" value="" style="endArrow=none;html=1;rounded=0;fontSize=20;exitX=1;exitY=0.523;exitDx=0;exitDy=0;exitPerimeter=0;entryX=0.995;entryY=0.969;entryDx=0;entryDy=0;entryPerimeter=0;" edge="1" parent="1" source="CwhcZS40O737dXPSPKNs-14" target="9g3BDJK04uG7Q3a8VbqJ-12">
          <mxGeometry width="50" height="50" relative="1" as="geometry">
            <mxPoint x="1490" y="1038.17" as="sourcePoint" />
            <mxPoint x="1650" y="1037" as="targetPoint" />
          </mxGeometry>
        </mxCell>
        <mxCell id="9g3BDJK04uG7Q3a8VbqJ-11" value="1" style="text;html=1;align=center;verticalAlign=middle;resizable=0;points=[];autosize=1;strokeColor=none;fillColor=none;fontSize=20;" vertex="1" parent="1">
          <mxGeometry x="1485" y="1000" width="30" height="40" as="geometry" />
        </mxCell>
        <mxCell id="9g3BDJK04uG7Q3a8VbqJ-12" value="1" style="text;html=1;align=center;verticalAlign=middle;resizable=0;points=[];autosize=1;strokeColor=none;fillColor=none;fontSize=20;" vertex="1" parent="1">
          <mxGeometry x="1615" y="1000" width="30" height="40" as="geometry" />
        </mxCell>
        <mxCell id="9g3BDJK04uG7Q3a8VbqJ-13" value="" style="endArrow=none;html=1;rounded=0;fontSize=20;entryX=0.001;entryY=0.727;entryDx=0;entryDy=0;entryPerimeter=0;exitX=0.001;exitY=0.916;exitDx=0;exitDy=0;exitPerimeter=0;" edge="1" parent="1" source="9g3BDJK04uG7Q3a8VbqJ-14" target="CwhcZS40O737dXPSPKNs-21">
          <mxGeometry width="50" height="50" relative="1" as="geometry">
            <mxPoint x="1885" y="1067.5" as="sourcePoint" />
            <mxPoint x="2035" y="1066" as="targetPoint" />
          </mxGeometry>
        </mxCell>
        <mxCell id="9g3BDJK04uG7Q3a8VbqJ-14" value="1" style="text;html=1;align=center;verticalAlign=middle;resizable=0;points=[];autosize=1;strokeColor=none;fillColor=none;fontSize=20;" vertex="1" parent="1">
          <mxGeometry x="1885" y="1033" width="30" height="40" as="geometry" />
        </mxCell>
        <mxCell id="9g3BDJK04uG7Q3a8VbqJ-15" value="1" style="text;html=1;align=center;verticalAlign=middle;resizable=0;points=[];autosize=1;strokeColor=none;fillColor=none;fontSize=20;" vertex="1" parent="1">
          <mxGeometry x="2005" y="1033" width="30" height="40" as="geometry" />
        </mxCell>
        <mxCell id="9g3BDJK04uG7Q3a8VbqJ-16" value="" style="endArrow=none;html=1;rounded=0;fontSize=20;exitX=1.004;exitY=0.373;exitDx=0;exitDy=0;exitPerimeter=0;" edge="1" parent="1" source="CwhcZS40O737dXPSPKNs-23">
          <mxGeometry width="50" height="50" relative="1" as="geometry">
            <mxPoint x="875" y="1300" as="sourcePoint" />
            <mxPoint x="1145" y="1300" as="targetPoint" />
          </mxGeometry>
        </mxCell>
        <mxCell id="9g3BDJK04uG7Q3a8VbqJ-17" value="1" style="text;html=1;align=center;verticalAlign=middle;resizable=0;points=[];autosize=1;strokeColor=none;fillColor=none;fontSize=20;" vertex="1" parent="1">
          <mxGeometry x="870" y="1258" width="30" height="40" as="geometry" />
        </mxCell>
        <mxCell id="9g3BDJK04uG7Q3a8VbqJ-18" value="1" style="text;html=1;align=center;verticalAlign=middle;resizable=0;points=[];autosize=1;strokeColor=none;fillColor=none;fontSize=20;" vertex="1" parent="1">
          <mxGeometry x="1115" y="1258" width="30" height="40" as="geometry" />
        </mxCell>
        <mxCell id="9g3BDJK04uG7Q3a8VbqJ-19" value="" style="endArrow=none;html=1;rounded=0;exitX=1.008;exitY=0.689;exitDx=0;exitDy=0;exitPerimeter=0;entryX=0.25;entryY=0;entryDx=0;entryDy=0;" edge="1" parent="1" source="CwhcZS40O737dXPSPKNs-19" target="CwhcZS40O737dXPSPKNs-13">
          <mxGeometry width="50" height="50" relative="1" as="geometry">
            <mxPoint x="2035" y="1400" as="sourcePoint" />
            <mxPoint x="2105" y="1250" as="targetPoint" />
          </mxGeometry>
        </mxCell>
        <mxCell id="9g3BDJK04uG7Q3a8VbqJ-20" value="1" style="text;html=1;align=center;verticalAlign=middle;resizable=0;points=[];autosize=1;strokeColor=none;fillColor=none;fontSize=20;" vertex="1" parent="1">
          <mxGeometry x="1900" y="1103" width="30" height="40" as="geometry" />
        </mxCell>
        <mxCell id="9g3BDJK04uG7Q3a8VbqJ-21" value="&lt;font style=&quot;font-size: 20px;&quot;&gt;1&lt;/font&gt;" style="text;html=1;align=center;verticalAlign=middle;resizable=0;points=[];autosize=1;strokeColor=none;fillColor=none;" vertex="1" parent="1">
          <mxGeometry x="2125" y="1250" width="30" height="40" as="geometry" />
        </mxCell>
        <mxCell id="9g3BDJK04uG7Q3a8VbqJ-22" value="" style="endArrow=none;html=1;rounded=0;" edge="1" parent="1">
          <mxGeometry width="50" height="50" relative="1" as="geometry">
            <mxPoint x="1765" y="1300" as="sourcePoint" />
            <mxPoint x="1764.17" y="1190" as="targetPoint" />
          </mxGeometry>
        </mxCell>
        <mxCell id="9g3BDJK04uG7Q3a8VbqJ-24" value="1" style="text;html=1;align=center;verticalAlign=middle;resizable=0;points=[];autosize=1;strokeColor=none;fillColor=none;fontSize=20;" vertex="1" parent="1">
          <mxGeometry x="1765" y="1190" width="30" height="40" as="geometry" />
        </mxCell>
        <mxCell id="9g3BDJK04uG7Q3a8VbqJ-25" value="1" style="text;html=1;align=center;verticalAlign=middle;resizable=0;points=[];autosize=1;strokeColor=none;fillColor=none;fontSize=20;" vertex="1" parent="1">
          <mxGeometry x="1765" y="1260" width="30" height="40" as="geometry" />
        </mxCell>
      </root>
    </mxGraphModel>
  </diagram>
</mxfile>
